<?xml version="1.0" encoding="UTF-8"?>
<svg width="600" height="400" viewBox="0 0 600 400" version="1.1" xmlns="http://www.w3.org/2000/svg">
  <!-- Background -->
  <rect width="600" height="400" fill="#f8fafc" rx="20" ry="20"/>
  
  <!-- Property Assessment Elements -->
  <g transform="translate(300, 180)">
    <!-- Main Building -->
    <g transform="translate(-100, -100)">
      <rect x="0" y="0" width="200" height="160" fill="#e2e8f0" stroke="#94a3b8" stroke-width="2"/>
      
      <!-- Roof -->
      <polygon points="0,0 100,-50 200,0" fill="#cbd5e1" stroke="#94a3b8" stroke-width="2"/>
      
      <!-- Windows -->
      <rect x="20" y="30" width="30" height="30" fill="#bfdbfe" stroke="#3b82f6" stroke-width="1"/>
      <rect x="70" y="30" width="30" height="30" fill="#bfdbfe" stroke="#3b82f6" stroke-width="1"/>
      <rect x="150" y="30" width="30" height="30" fill="#bfdbfe" stroke="#3b82f6" stroke-width="1"/>
      
      <rect x="20" y="80" width="30" height="30" fill="#bfdbfe" stroke="#3b82f6" stroke-width="1"/>
      <rect x="70" y="80" width="30" height="30" fill="#bfdbfe" stroke="#3b82f6" stroke-width="1"/>
      <rect x="150" y="80" width="30" height="30" fill="#bfdbfe" stroke="#3b82f6" stroke-width="1"/>
      
      <!-- Door -->
      <rect x="100" y="110" width="40" height="50" fill="#475569" stroke="#334155" stroke-width="1"/>
      <circle cx="110" cy="135" r="3" fill="#fbbf24"/>
    </g>
    
    <!-- Property Marker -->
    <g transform="translate(60, 10)">
      <rect x="0" y="0" width="80" height="100" fill="white" stroke="#94a3b8" stroke-width="2"/>
      
      <!-- Clipboard Lines -->
      <line x1="10" y1="20" x2="70" y2="20" stroke="#64748b" stroke-width="1"/>
      <line x1="10" y1="35" x2="70" y2="35" stroke="#64748b" stroke-width="1"/>
      <line x1="10" y1="50" x2="70" y2="50" stroke="#64748b" stroke-width="1"/>
      <line x1="10" y1="65" x2="70" y2="65" stroke="#64748b" stroke-width="1"/>
      <line x1="10" y1="80" x2="70" y2="80" stroke="#64748b" stroke-width="1"/>
      
      <!-- Clipboard Check -->
      <circle cx="15" cy="35" r="5" fill="#22c55e" fill-opacity="0.2" stroke="#22c55e" stroke-width="1"/>
      <path d="M 12 35 L 15 38 L 18 32" stroke="#22c55e" stroke-width="2" fill="none"/>
      
      <circle cx="15" cy="50" r="5" fill="#22c55e" fill-opacity="0.2" stroke="#22c55e" stroke-width="1"/>
      <path d="M 12 50 L 15 53 L 18 47" stroke="#22c55e" stroke-width="2" fill="none"/>
      
      <!-- Clipboard Value -->
      <text x="40" y="40" font-family="Arial, sans-serif" font-size="8" text-anchor="middle" fill="#0f172a">$315,000</text>
      <text x="40" y="55" font-family="Arial, sans-serif" font-size="8" text-anchor="middle" fill="#0f172a">3BR 2BA</text>
      <text x="40" y="70" font-family="Arial, sans-serif" font-size="7" text-anchor="middle" fill="#475569">Zone: R1</text>
      <text x="40" y="85" font-family="Arial, sans-serif" font-size="7" text-anchor="middle" fill="#475569">Tax: $4,725</text>
    </g>
  </g>
  
  <!-- Person -->
  <g transform="translate(140, 160)">
    <!-- Head -->
    <circle cx="0" cy="0" r="25" fill="#fbbf24"/>
    
    <!-- Face -->
    <circle cx="-10" cy="-5" r="3" fill="#1e293b"/> <!-- Left eye -->
    <circle cx="10" cy="-5" r="3" fill="#1e293b"/> <!-- Right eye -->
    <path d="M -10 15 Q 0 20 10 15" stroke="#1e293b" stroke-width="2" fill="none"/> <!-- Smile -->
    
    <!-- Torso -->
    <rect x="-25" y="25" width="50" height="70" rx="5" ry="5" fill="#10b981"/>
    
    <!-- Arms -->
    <rect x="-60" y="30" width="35" height="15" rx="5" ry="5" fill="#10b981"/>
    <rect x="25" y="30" width="35" height="15" rx="5" ry="5" fill="#10b981"/>
    
    <!-- Tablet -->
    <rect x="25" y="30" width="40" height="60" rx="5" ry="5" fill="#334155" stroke="#1e293b" stroke-width="1"/>
    <rect x="30" y="35" width="30" height="40" rx="2" ry="2" fill="#94a3b8"/>
    <rect x="35" y="80" width="20" height="5" rx="2.5" ry="2.5" fill="#94a3b8"/>
    
    <!-- Hand -->
    <circle cx="70" cy="37" r="7" fill="#fbbf24"/>
    
    <!-- Legs -->
    <rect x="-25" y="95" width="18" height="50" rx="5" ry="5" fill="#047857"/>
    <rect x="7" y="95" width="18" height="50" rx="5" ry="5" fill="#047857"/>
  </g>
  
  <!-- Connection Lines -->
  <line x1="220" y1="150" x2="290" y2="120" stroke="#10b981" stroke-width="2" stroke-dasharray="5,5"/>
  <circle cx="290" cy="120" r="5" fill="#10b981"/>
  
  <!-- Property Value Graph -->
  <g transform="translate(460, 120)">
    <rect x="0" y="0" width="100" height="80" rx="5" ry="5" fill="white" stroke="#d1d5db" stroke-width="1"/>
    
    <!-- Graph Title -->
    <text x="50" y="15" font-family="Arial, sans-serif" font-size="8" font-weight="bold" text-anchor="middle" fill="#0f172a">Property Values</text>
    
    <!-- Graph Lines -->
    <line x1="10" y1="70" x2="90" y2="70" stroke="#d1d5db" stroke-width="1"/> <!-- X axis -->
    <line x1="10" y1="70" x2="10" y2="25" stroke="#d1d5db" stroke-width="1"/> <!-- Y axis -->
    
    <!-- Graph Data -->
    <polyline points="10,60 25,55 40,50 55,40 70,30 85,35" stroke="#10b981" stroke-width="2" fill="none"/>
    
    <!-- Data Points -->
    <circle cx="10" cy="60" r="3" fill="#10b981"/>
    <circle cx="25" cy="55" r="3" fill="#10b981"/>
    <circle cx="40" cy="50" r="3" fill="#10b981"/>
    <circle cx="55" cy="40" r="3" fill="#10b981"/>
    <circle cx="70" cy="30" r="3" fill="#10b981"/>
    <circle cx="85" cy="35" r="3" fill="#10b981"/>
  </g>
  
  <!-- Text -->
  <text x="300" y="330" font-family="Arial, sans-serif" font-size="24" font-weight="bold" text-anchor="middle" fill="#0f172a">
    Property Assessor Onboarding
  </text>
  <text x="300" y="360" font-family="Arial, sans-serif" font-size="16" text-anchor="middle" fill="#475569">
    Review and approve property assessment data
  </text>
</svg>