<?xml version="1.0" encoding="UTF-8"?>
<svg width="300" height="200" xmlns="http://www.w3.org/2000/svg">
  <!-- Background -->
  <rect width="300" height="200" fill="#f0fdf4" rx="15" ry="15"/>
  
  <!-- House/Property -->
  <g transform="translate(70, 80)">
    <path d="M0,0 L60,0 L60,40 L0,40 Z" fill="#16a34a"/>
    <path d="M0,0 L60,-30 L120,0 Z" fill="#166534"/>
    <rect x="80" y="0" width="40" height="40" fill="#16a34a"/>
    <rect x="25" y="15" width="15" height="25" fill="#dcfce7"/>
    <rect x="90" y="15" width="20" height="15" fill="#dcfce7"/>
  </g>
  
  <!-- Assessor Figure -->
  <g transform="translate(200, 100)">
    <circle cx="0" cy="-20" r="15" fill="#f0fdf4"/>
    <path d="M-15,0 Q0,20 15,0 L15,40 L-15,40 L-15,0 Z" fill="#15803d"/>
    <rect x="-20" y="10" width="40" height="6" fill="#f0fdf4" rx="3" ry="3"/>
  </g>
  
  <!-- Clipboard -->
  <g transform="translate(230, 110)">
    <rect x="0" y="0" width="25" height="35" fill="#f0fdf4" rx="2" ry="2" stroke="#15803d" stroke-width="2"/>
    <rect x="5" y="5" width="15" height="2" fill="#15803d"/>
    <rect x="5" y="10" width="15" height="2" fill="#15803d"/>
    <rect x="5" y="15" width="15" height="2" fill="#15803d"/>
    <rect x="5" y="20" width="8" height="2" fill="#15803d"/>
    <circle cx="12" cy="-5" r="4" fill="#15803d"/>
    <rect x="10" y="-5" width="4" height="5" fill="#15803d"/>
  </g>
  
  <!-- Magnifying Glass -->
  <g transform="translate(170, 140)">
    <circle cx="0" cy="0" r="10" fill="none" stroke="#15803d" stroke-width="3"/>
    <line x1="7" y1="7" x2="15" y2="15" stroke="#15803d" stroke-width="3" stroke-linecap="round"/>
  </g>
  
  <!-- Dollar Sign -->
  <g transform="translate(45, 50)">
    <circle cx="0" cy="0" r="15" fill="#bbf7d0"/>
    <path d="M0,-7 L0,7 M-5,-5 C-5,-8 5,-8 5,-5 C5,-2 -5,2 -5,5 C-5,8 5,8 5,5" stroke="#15803d" stroke-width="2" stroke-linecap="round" fill="none"/>
  </g>
  
  <!-- Text -->
  <text x="150" y="30" font-family="Arial" font-size="16" font-weight="bold" fill="#15803d" text-anchor="middle">County Assessor</text>
  <text x="150" y="180" font-family="Arial" font-size="14" fill="#15803d" text-anchor="middle">Property Assessment</text>
</svg>