<?xml version="1.0" encoding="UTF-8"?>
<svg width="400" height="300" viewBox="0 0 400 300" fill="none" xmlns="http://www.w3.org/2000/svg">
  <!-- Background -->
  <rect width="400" height="300" rx="10" fill="#F0FFF4"/>
  
  <!-- Property Document -->
  <rect x="120" y="80" width="160" height="180" rx="5" fill="white" stroke="#2F855A" stroke-width="2"/>
  <line x1="140" y1="110" x2="260" y2="110" stroke="#E2E8F0" stroke-width="2"/>
  <line x1="140" y1="140" x2="260" y2="140" stroke="#E2E8F0" stroke-width="2"/>
  <line x1="140" y1="170" x2="260" y2="170" stroke="#E2E8F0" stroke-width="2"/>
  <line x1="140" y1="200" x2="260" y2="200" stroke="#E2E8F0" stroke-width="2"/>
  <line x1="140" y1="230" x2="260" y2="230" stroke="#E2E8F0" stroke-width="2"/>
  
  <!-- Property Title -->
  <rect x="140" y="90" width="120" height="12" rx="2" fill="#C6F6D5"/>
  
  <!-- Property Details -->
  <rect x="140" y="120" width="60" height="8" rx="2" fill="#E2E8F0"/>
  <rect x="210" y="120" width="40" height="8" rx="2" fill="#48BB78"/>
  
  <rect x="140" y="150" width="60" height="8" rx="2" fill="#E2E8F0"/>
  <rect x="210" y="150" width="40" height="8" rx="2" fill="#48BB78"/>
  
  <rect x="140" y="180" width="60" height="8" rx="2" fill="#E2E8F0"/>
  <rect x="210" y="180" width="40" height="8" rx="2" fill="#48BB78"/>
  
  <rect x="140" y="210" width="60" height="8" rx="2" fill="#E2E8F0"/>
  <rect x="210" y="210" width="40" height="8" rx="2" fill="#48BB78"/>
  
  <!-- Approval Stamp -->
  <circle cx="310" cy="150" r="40" fill="#F0FFF4" stroke="#38A169" stroke-width="2"/>
  <path d="M290 150 L305 165 L330 135" stroke="#38A169" stroke-width="4" stroke-linecap="round" stroke-linejoin="round"/>
  
  <!-- Magnifying Glass -->
  <circle cx="90" cy="150" r="25" fill="#C6F6D5" stroke="#38A169" stroke-width="2"/>
  <line x1="70" y1="170" x2="55" y2="185" stroke="#38A169" stroke-width="4" stroke-linecap="round"/>
  <circle cx="90" cy="150" r="15" fill="#F0FFF4" stroke="#38A169" stroke-width="2"/>
  
  <!-- Title -->
  <text x="200" y="40" font-family="Arial, sans-serif" font-size="24" font-weight="bold" text-anchor="middle" fill="#276749">Assessor</text>
  <text x="200" y="275" font-family="Arial, sans-serif" font-size="16" text-anchor="middle" fill="#2D3748">Property Assessment</text>
</svg>