<?xml version="1.0" encoding="UTF-8"?>
<svg width="400" height="300" viewBox="0 0 400 300" fill="none" xmlns="http://www.w3.org/2000/svg">
  <!-- Background -->
  <rect width="400" height="300" rx="10" fill="#FAF5FF"/>
  
  <!-- Chart Paper Background -->
  <rect x="100" y="70" width="200" height="190" rx="5" fill="white" stroke="#805AD5" stroke-width="2"/>
  
  <!-- Grid Lines -->
  <line x1="100" y1="100" x2="300" y2="100" stroke="#E9D8FD" stroke-width="1"/>
  <line x1="100" y1="130" x2="300" y2="130" stroke="#E9D8FD" stroke-width="1"/>
  <line x1="100" y1="160" x2="300" y2="160" stroke="#E9D8FD" stroke-width="1"/>
  <line x1="100" y1="190" x2="300" y2="190" stroke="#E9D8FD" stroke-width="1"/>
  <line x1="100" y1="220" x2="300" y2="220" stroke="#E9D8FD" stroke-width="1"/>
  
  <line x1="130" y1="70" x2="130" y2="260" stroke="#E9D8FD" stroke-width="1"/>
  <line x1="160" y1="70" x2="160" y2="260" stroke="#E9D8FD" stroke-width="1"/>
  <line x1="190" y1="70" x2="190" y2="260" stroke="#E9D8FD" stroke-width="1"/>
  <line x1="220" y1="70" x2="220" y2="260" stroke="#E9D8FD" stroke-width="1"/>
  <line x1="250" y1="70" x2="250" y2="260" stroke="#E9D8FD" stroke-width="1"/>
  <line x1="280" y1="70" x2="280" y2="260" stroke="#E9D8FD" stroke-width="1"/>
  
  <!-- Bar Chart -->
  <rect x="110" y="190" width="30" height="30" rx="2" fill="#B794F4"/>
  <rect x="150" y="170" width="30" height="50" rx="2" fill="#B794F4"/>
  <rect x="190" y="150" width="30" height="70" rx="2" fill="#B794F4"/>
  <rect x="230" y="130" width="30" height="90" rx="2" fill="#B794F4"/>
  <rect x="270" y="160" width="30" height="60" rx="2" fill="#B794F4"/>
  
  <!-- Line Graph -->
  <path d="M110 120 L160 110 L200 130 L240 90 L290 100" stroke="#6B46C1" stroke-width="3" stroke-linecap="round" stroke-linejoin="round" fill="none"/>
  
  <!-- Data Points -->
  <circle cx="110" cy="120" r="4" fill="#6B46C1"/>
  <circle cx="160" cy="110" r="4" fill="#6B46C1"/>
  <circle cx="200" cy="130" r="4" fill="#6B46C1"/>
  <circle cx="240" cy="90" r="4" fill="#6B46C1"/>
  <circle cx="290" cy="100" r="4" fill="#6B46C1"/>
  
  <!-- Magnifying Glass with Eye -->
  <circle cx="330" cy="80" r="25" fill="#E9D8FD" stroke="#805AD5" stroke-width="2"/>
  <line x1="315" y1="95" x2="300" y2="110" stroke="#805AD5" stroke-width="3" stroke-linecap="round"/>
  <circle cx="330" cy="80" r="12" fill="white" stroke="#805AD5" stroke-width="2"/>
  <circle cx="330" cy="80" r="4" fill="#6B46C1"/>
  
  <!-- Checklist -->
  <rect x="60" y="140" width="30" height="100" rx="2" fill="#E9D8FD" stroke="#805AD5" stroke-width="1.5"/>
  <line x1="67" y1="160" x2="83" y2="160" stroke="#805AD5" stroke-width="1.5"/>
  <line x1="67" y1="175" x2="83" y2="175" stroke="#805AD5" stroke-width="1.5"/>
  <line x1="67" y1="190" x2="83" y2="190" stroke="#805AD5" stroke-width="1.5"/>
  <line x1="67" y1="205" x2="83" y2="205" stroke="#805AD5" stroke-width="1.5"/>
  <line x1="67" y1="220" x2="83" y2="220" stroke="#805AD5" stroke-width="1.5"/>
  
  <!-- Title -->
  <text x="200" y="40" font-family="Arial, sans-serif" font-size="24" font-weight="bold" text-anchor="middle" fill="#553C9A">Auditor</text>
  <text x="200" y="275" font-family="Arial, sans-serif" font-size="16" text-anchor="middle" fill="#2D3748">Compliance Verification</text>
</svg>