<?xml version="1.0" encoding="UTF-8"?>
<svg width="600" height="400" viewBox="0 0 600 400" version="1.1" xmlns="http://www.w3.org/2000/svg">
  <!-- Background -->
  <rect width="600" height="400" fill="#f8fafc" rx="20" ry="20"/>
  
  <!-- Audit Dashboard -->
  <g transform="translate(350, 180)">
    <!-- Dashboard Container -->
    <rect x="-120" y="-100" width="240" height="180" rx="5" ry="5" fill="#f1f5f9" stroke="#cbd5e1" stroke-width="2"/>
    
    <!-- Dashboard Header -->
    <rect x="-120" y="-100" width="240" height="30" rx="5" ry="5" fill="#334155"/>
    <text x="0" y="-80" font-family="Arial, sans-serif" font-size="10" font-weight="bold" text-anchor="middle" fill="#f8fafc">Audit Trail Dashboard</text>
    
    <!-- Left Panel - Activity Log -->
    <rect x="-110" y="-60" width="140" height="130" rx="3" ry="3" fill="white" stroke="#cbd5e1" stroke-width="1"/>
    <text x="-40" y="-45" font-family="Arial, sans-serif" font-size="8" font-weight="bold" text-anchor="middle" fill="#0f172a">Activity Log</text>
    
    <!-- Activity Records -->
    <rect x="-105" y="-35" width="130" height="20" fill="#f8fafc" stroke="#e2e8f0" stroke-width="1"/>
    <circle cx="-95" cy="-25" r="5" fill="#3b82f6" fill-opacity="0.2" stroke="#3b82f6" stroke-width="1"/>
    <text x="-80" y="-23" font-family="Arial, sans-serif" font-size="6" font-weight="bold" text-anchor="start" fill="#334155">Login</text>
    <text x="-35" y="-23" font-family="Arial, sans-serif" font-size="6" text-anchor="start" fill="#64748b">User: jdoe</text>
    <text x="-100" y="-23" font-family="Arial, sans-serif" font-size="4" text-anchor="middle" fill="#64748b">8:02</text>
    
    <rect x="-105" y="-10" width="130" height="20" fill="#f8fafc" stroke="#e2e8f0" stroke-width="1"/>
    <circle cx="-95" cy="0" r="5" fill="#22c55e" fill-opacity="0.2" stroke="#22c55e" stroke-width="1"/>
    <text x="-80" y="2" font-family="Arial, sans-serif" font-size="6" font-weight="bold" text-anchor="start" fill="#334155">File Upload</text>
    <text x="-35" y="2" font-family="Arial, sans-serif" font-size="6" text-anchor="start" fill="#64748b">Staff: rwilson</text>
    <text x="-100" y="2" font-family="Arial, sans-serif" font-size="4" text-anchor="middle" fill="#64748b">8:15</text>
    
    <rect x="-105" y="15" width="130" height="20" fill="#f8fafc" stroke="#e2e8f0" stroke-width="1"/>
    <circle cx="-95" cy="25" r="5" fill="#eab308" fill-opacity="0.2" stroke="#eab308" stroke-width="1"/>
    <text x="-80" y="27" font-family="Arial, sans-serif" font-size="6" font-weight="bold" text-anchor="start" fill="#334155">Validation Warning</text>
    <text x="-35" y="27" font-family="Arial, sans-serif" font-size="6" text-anchor="start" fill="#64748b">System</text>
    <text x="-100" y="27" font-family="Arial, sans-serif" font-size="4" text-anchor="middle" fill="#64748b">8:16</text>
    
    <rect x="-105" y="40" width="130" height="20" fill="#f8fafc" stroke="#e2e8f0" stroke-width="1"/>
    <circle cx="-95" cy="50" r="5" fill="#22c55e" fill-opacity="0.2" stroke="#22c55e" stroke-width="1"/>
    <text x="-80" y="52" font-family="Arial, sans-serif" font-size="6" font-weight="bold" text-anchor="start" fill="#334155">Approval</text>
    <text x="-35" y="52" font-family="Arial, sans-serif" font-size="6" text-anchor="start" fill="#64748b">Assessor: mthomas</text>
    <text x="-100" y="52" font-family="Arial, sans-serif" font-size="4" text-anchor="middle" fill="#64748b">9:30</text>
    
    <!-- Right Panel - Stats -->
    <rect x="40" y="-60" width="70" height="130" rx="3" ry="3" fill="white" stroke="#cbd5e1" stroke-width="1"/>
    
    <!-- Stat 1 -->
    <rect x="45" y="-50" width="60" height="25" rx="2" ry="2" fill="#f8fafc"/>
    <text x="75" y="-43" font-family="Arial, sans-serif" font-size="6" text-anchor="middle" fill="#64748b">Uploads Today</text>
    <text x="75" y="-30" font-family="Arial, sans-serif" font-size="12" font-weight="bold" text-anchor="middle" fill="#0f172a">8</text>
    
    <!-- Stat 2 -->
    <rect x="45" y="-20" width="60" height="25" rx="2" ry="2" fill="#f8fafc"/>
    <text x="75" y="-13" font-family="Arial, sans-serif" font-size="6" text-anchor="middle" fill="#64748b">Approvals</text>
    <text x="75" y="0" font-family="Arial, sans-serif" font-size="12" font-weight="bold" text-anchor="middle" fill="#0f172a">5</text>
    
    <!-- Stat 3 -->
    <rect x="45" y="10" width="60" height="25" rx="2" ry="2" fill="#f8fafc"/>
    <text x="75" y="17" font-family="Arial, sans-serif" font-size="6" text-anchor="middle" fill="#64748b">Warnings</text>
    <text x="75" y="30" font-family="Arial, sans-serif" font-size="12" font-weight="bold" text-anchor="middle" fill="#0f172a">3</text>
    
    <!-- Stat 4 -->
    <rect x="45" y="40" width="60" height="25" rx="2" ry="2" fill="#f8fafc"/>
    <text x="75" y="47" font-family="Arial, sans-serif" font-size="6" text-anchor="middle" fill="#64748b">IP Changes</text>
    <text x="75" y="60" font-family="Arial, sans-serif" font-size="12" font-weight="bold" text-anchor="middle" fill="#0f172a">1</text>
  </g>
  
  <!-- Person -->
  <g transform="translate(140, 160)">
    <!-- Head -->
    <circle cx="0" cy="0" r="25" fill="#fbbf24"/>
    
    <!-- Face -->
    <circle cx="-10" cy="-5" r="3" fill="#1e293b"/> <!-- Left eye -->
    <circle cx="10" cy="-5" r="3" fill="#1e293b"/> <!-- Right eye -->
    <path d="M -10 15 Q 0 20 10 15" stroke="#1e293b" stroke-width="2" fill="none"/> <!-- Smile -->
    
    <!-- Glasses -->
    <circle cx="-10" cy="-5" r="6" fill="none" stroke="#1e293b" stroke-width="1"/>
    <circle cx="10" cy="-5" r="6" fill="none" stroke="#1e293b" stroke-width="1"/>
    <line x1="-4" y1="-5" x2="4" y2="-5" stroke="#1e293b" stroke-width="1"/>
    
    <!-- Torso -->
    <rect x="-25" y="25" width="50" height="70" rx="5" ry="5" fill="#818cf8"/>
    
    <!-- Arms -->
    <rect x="-60" y="30" width="35" height="15" rx="5" ry="5" fill="#818cf8"/>
    <rect x="25" y="30" width="35" height="15" rx="5" ry="5" fill="#818cf8"/>
    
    <!-- Badge -->
    <rect x="5" y="35" width="10" height="15" rx="1" ry="1" fill="#f8fafc" stroke="#d1d5db" stroke-width="0.5"/>
    <text x="10" y="43" font-family="Arial, sans-serif" font-size="4" font-weight="bold" text-anchor="middle" fill="#334155">AUDIT</text>
    
    <!-- Clipboard -->
    <rect x="-50" y="5" width="25" height="35" fill="#f8fafc" stroke="#d1d5db" stroke-width="1"/>
    <line x1="-45" y1="15" x2="-30" y2="15" stroke="#94a3b8" stroke-width="0.5"/>
    <line x1="-45" y1="20" x2="-30" y2="20" stroke="#94a3b8" stroke-width="0.5"/>
    <line x1="-45" y1="25" x2="-30" y2="25" stroke="#94a3b8" stroke-width="0.5"/>
    <line x1="-45" y1="30" x2="-30" y2="30" stroke="#94a3b8" stroke-width="0.5"/>
    
    <!-- Hand -->
    <circle cx="-50" cy="37" r="7" fill="#fbbf24"/>
    
    <!-- Legs -->
    <rect x="-25" y="95" width="18" height="50" rx="5" ry="5" fill="#6366f1"/>
    <rect x="7" y="95" width="18" height="50" rx="5" ry="5" fill="#6366f1"/>
  </g>
  
  <!-- Audit Report Example -->
  <g transform="translate(480, 130)">
    <rect x="0" y="0" width="80" height="100" rx="2" ry="2" fill="white" stroke="#d1d5db" stroke-width="1"/>
    
    <!-- Report Header -->
    <rect x="0" y="0" width="80" height="15" rx="2" ry="2" fill="#f1f5f9"/>
    <text x="40" y="10" font-family="Arial, sans-serif" font-size="6" font-weight="bold" text-anchor="middle" fill="#0f172a">AUDIT REPORT</text>
    
    <!-- Report Content -->
    <line x1="5" y1="25" x2="75" y2="25" stroke="#e2e8f0" stroke-width="1"/>
    
    <text x="10" y="20" font-family="Arial, sans-serif" font-size="4" font-weight="bold" text-anchor="start" fill="#334155">System Access</text>
    <rect x="10" y="30" width="60" height="5" rx="1" ry="1" fill="#f8fafc"/>
    <rect x="10" y="30" width="45" height="5" rx="1" ry="1" fill="#22c55e"/>
    
    <text x="10" y="40" font-family="Arial, sans-serif" font-size="4" font-weight="bold" text-anchor="start" fill="#334155">Data Validation</text>
    <rect x="10" y="50" width="60" height="5" rx="1" ry="1" fill="#f8fafc"/>
    <rect x="10" y="50" width="50" height="5" rx="1" ry="1" fill="#eab308"/>
    
    <text x="10" y="60" font-family="Arial, sans-serif" font-size="4" font-weight="bold" text-anchor="start" fill="#334155">Approvals</text>
    <rect x="10" y="70" width="60" height="5" rx="1" ry="1" fill="#f8fafc"/>
    <rect x="10" y="70" width="55" height="5" rx="1" ry="1" fill="#22c55e"/>
    
    <text x="10" y="80" font-family="Arial, sans-serif" font-size="4" font-weight="bold" text-anchor="start" fill="#334155">System Errors</text>
    <rect x="10" y="90" width="60" height="5" rx="1" ry="1" fill="#f8fafc"/>
    <rect x="10" y="90" width="10" height="5" rx="1" ry="1" fill="#ef4444"/>
  </g>
  
  <!-- Connection Lines -->
  <g>
    <path d="M 200 160 Q 230 120 280 120" stroke="#818cf8" stroke-width="2" stroke-dasharray="5,5" fill="none"/>
    <circle cx="280" cy="120" r="5" fill="#818cf8"/>
    
    <path d="M 200 170 Q 250 200 230 225" stroke="#818cf8" stroke-width="2" stroke-dasharray="5,5" fill="none"/>
    <circle cx="230" cy="225" r="5" fill="#818cf8"/>
  </g>
  
  <!-- Text -->
  <text x="300" y="330" font-family="Arial, sans-serif" font-size="24" font-weight="bold" text-anchor="middle" fill="#0f172a">
    County Auditor Onboarding
  </text>
  <text x="300" y="360" font-family="Arial, sans-serif" font-size="16" text-anchor="middle" fill="#475569">
    Oversee and verify data integrity and compliance
  </text>
</svg>