<?xml version="1.0" encoding="UTF-8"?>
<svg width="400" height="300" viewBox="0 0 400 300" fill="none" xmlns="http://www.w3.org/2000/svg">
  <!-- Background -->
  <rect width="400" height="300" rx="10" fill="#FFFAF0"/>
  
  <!-- Upload Box -->
  <rect x="120" y="100" width="160" height="140" rx="8" fill="white" stroke="#ED8936" stroke-width="2" stroke-dasharray="5 5"/>
  
  <!-- Upload Icon -->
  <circle cx="200" cy="140" r="35" fill="#FEEBC8"/>
  <path d="M200 120 L200 160" stroke="#ED8936" stroke-width="4" stroke-linecap="round"/>
  <path d="M180 140 L200 120 L220 140" stroke="#ED8936" stroke-width="4" stroke-linecap="round" stroke-linejoin="round"/>
  
  <!-- File Icons -->
  <rect x="170" y="180" width="25" height="30" rx="2" fill="#FEEBC8" stroke="#ED8936" stroke-width="1.5"/>
  <path d="M170 187 L195 187" stroke="#ED8936" stroke-width="1.5"/>
  <path d="M170 193 L195 193" stroke="#ED8936" stroke-width="1.5"/>
  <path d="M170 199 L185 199" stroke="#ED8936" stroke-width="1.5"/>
  
  <rect x="205" y="180" width="25" height="30" rx="2" fill="#FEEBC8" stroke="#ED8936" stroke-width="1.5"/>
  <path d="M205 187 L230 187" stroke="#ED8936" stroke-width="1.5"/>
  <path d="M205 193 L230 193" stroke="#ED8936" stroke-width="1.5"/>
  <path d="M205 199 L220 199" stroke="#ED8936" stroke-width="1.5"/>
  
  <!-- Progress Bar 1 (Left Side) -->
  <rect x="80" y="100" width="20" height="140" rx="4" fill="#F6AD55" opacity="0.3"/>
  <rect x="80" y="170" width="20" height="70" rx="4" fill="#F6AD55"/>
  
  <!-- Progress Bar 2 (Right Side) -->
  <rect x="300" y="100" width="20" height="140" rx="4" fill="#F6AD55" opacity="0.3"/>
  <rect x="300" y="200" width="20" height="40" rx="4" fill="#F6AD55"/>
  
  <!-- Dots connecting bars to upload box -->
  <circle cx="110" cy="140" r="5" fill="#ED8936"/>
  <circle cx="290" cy="140" r="5" fill="#ED8936"/>
  <line x1="100" y1="140" x2="120" y2="140" stroke="#ED8936" stroke-width="2"/>
  <line x1="280" y1="140" x2="300" y2="140" stroke="#ED8936" stroke-width="2"/>
  
  <!-- Title -->
  <text x="200" y="40" font-family="Arial, sans-serif" font-size="24" font-weight="bold" text-anchor="middle" fill="#C05621">Staff</text>
  <text x="200" y="260" font-family="Arial, sans-serif" font-size="16" text-anchor="middle" fill="#2D3748">Data Upload</text>
</svg>