<?xml version="1.0" encoding="UTF-8"?>
<svg width="400" height="300" viewBox="0 0 400 300" xmlns="http://www.w3.org/2000/svg">
  <!-- Background -->
  <rect x="0" y="0" width="400" height="300" fill="#f5f9f7" rx="10" ry="10"/>
  
  <!-- Staff dashboard illustration -->
  <rect x="50" y="50" width="300" height="200" fill="#ffffff" stroke="#003366" stroke-width="2" rx="5" ry="5"/>
  
  <!-- Header bar -->
  <rect x="50" y="50" width="300" height="40" fill="#38b2ac" rx="5" ry="5"/>
  <text x="70" y="75" font-family="Arial" font-size="14" fill="#ffffff" font-weight="bold">County Property Assessment - Staff Dashboard</text>
  
  <!-- User icon -->
  <circle cx="330" cy="70" r="15" fill="#ffffff"/>
  <path d="M330 60 Q330 55, 325 55 L335 55 Q330 55, 330 60" fill="#38b2ac"/>
  <circle cx="330" cy="67" r="6" fill="#38b2ac"/>
  <path d="M320 80 Q330 90, 340 80" fill="#38b2ac"/>
  
  <!-- Upload section -->
  <rect x="60" y="100" width="280" height="60" fill="#ebf8f5" stroke="#38b2ac" stroke-width="1" rx="3" ry="3"/>
  <text x="80" y="120" font-family="Arial" font-size="14" fill="#003366" font-weight="bold">Upload Assessment Data</text>
  <text x="80" y="140" font-family="Arial" font-size="11" fill="#5a6268">Select CSV or Excel files to upload</text>
  
  <rect x="240" y="110" width="80" height="30" fill="#38b2ac" rx="3" ry="3"/>
  <text x="265" y="130" font-family="Arial" font-size="12" fill="#ffffff" font-weight="bold">Upload</text>
  <circle cx="250" cy="125" r="8" fill="#ffffff"/>
  <path d="M250 122 L250 128 M247 125 L253 125 M250 122 L247 119 M250 122 L253 119" stroke="#38b2ac" stroke-width="1.5" fill="none"/>
  
  <!-- Recent uploads section -->
  <rect x="60" y="170" width="280" height="70" fill="#f8f9fa" stroke="#dee2e6" stroke-width="1" rx="3" ry="3"/>
  <text x="80" y="190" font-family="Arial" font-size="14" fill="#003366" font-weight="bold">Recent Uploads</text>
  
  <!-- Table headers -->
  <rect x="70" y="200" width="260" height="15" fill="#e9ecef" rx="2" ry="2"/>
  <text x="80" y="212" font-family="Arial" font-size="9" fill="#495057" font-weight="bold">Date</text>
  <text x="140" y="212" font-family="Arial" font-size="9" fill="#495057" font-weight="bold">Filename</text>
  <text x="240" y="212" font-family="Arial" font-size="9" fill="#495057" font-weight="bold">Status</text>
  <text x="300" y="212" font-family="Arial" font-size="9" fill="#495057" font-weight="bold">Action</text>
  
  <!-- Table row -->
  <rect x="70" y="215" width="260" height="15" fill="#ffffff" stroke="#dee2e6" stroke-width="0.5"/>
  <text x="80" y="227" font-family="Arial" font-size="9" fill="#212529">Today</text>
  <text x="140" y="227" font-family="Arial" font-size="9" fill="#212529">property_updates.csv</text>
  <text x="240" y="227" font-family="Arial" font-size="9" fill="#fd7e14">Pending</text>
  <rect x="295" y="217" width="30" height="10" fill="#38b2ac" rx="2" ry="2"/>
  <text x="302" y="225" font-family="Arial" font-size="7" fill="#ffffff">View</text>
  
  <!-- Title -->
  <text x="200" y="275" font-family="Arial" font-size="14" text-anchor="middle" fill="#003366" font-weight="bold">
    Welcome Staff Member
  </text>
</svg>