<?xml version="1.0" encoding="UTF-8"?>
<svg width="600" height="400" viewBox="0 0 600 400" version="1.1" xmlns="http://www.w3.org/2000/svg">
  <!-- Background -->
  <rect width="600" height="400" fill="#f8fafc" rx="20" ry="20"/>
  
  <!-- Data Upload Visual -->
  <g transform="translate(350, 180)">
    <!-- Computer System -->
    <rect x="-80" y="-75" width="160" height="120" rx="5" ry="5" fill="#e2e8f0" stroke="#94a3b8" stroke-width="2"/>
    
    <!-- Screen -->
    <rect x="-70" y="-65" width="140" height="85" rx="2" ry="2" fill="#1e293b" stroke="#0f172a" stroke-width="1"/>
    <rect x="-65" y="-60" width="130" height="75" rx="1" ry="1" fill="#334155"/>
    
    <!-- Screen Content - Upload UI -->
    <rect x="-55" y="-50" width="110" height="55" rx="2" ry="2" fill="#1e293b" stroke="#475569" stroke-width="1"/>
    
    <!-- Upload Area -->
    <rect x="-45" y="-40" width="90" height="35" rx="2" ry="2" fill="#334155" stroke="#475569" stroke-width="1" stroke-dasharray="5,3"/>
    <circle cx="0" cy="-22.5" r="15" fill="#334155" stroke="#60a5fa" stroke-width="1.5"/>
    <line x1="0" y1="-30" x2="0" y2="-15" stroke="#60a5fa" stroke-width="2"/>
    <line x1="-7.5" y1="-22.5" x2="7.5" y2="-22.5" stroke="#60a5fa" stroke-width="2"/>
    <text x="0" y="-5" font-family="Arial, sans-serif" font-size="7" text-anchor="middle" fill="#94a3b8">Drop files here</text>
    
    <!-- Upload Button -->
    <rect x="-30" y="5" width="60" height="20" rx="3" ry="3" fill="#2563eb" stroke="#1d4ed8" stroke-width="1"/>
    <text x="0" y="18" font-family="Arial, sans-serif" font-size="8" text-anchor="middle" fill="white">Upload</text>
    
    <!-- Computer Base -->
    <rect x="-40" y="35" width="80" height="10" rx="2" ry="2" fill="#94a3b8" stroke="#64748b" stroke-width="1"/>
    <rect x="-30" y="45" width="60" height="5" rx="1" ry="1" fill="#64748b"/>
    
    <!-- Files Being Transferred -->
    <g transform="translate(-120, -40)">
      <!-- File 1 -->
      <rect x="0" y="0" width="25" height="30" fill="#f1f5f9" stroke="#cbd5e1" stroke-width="1"/>
      <line x1="5" y1="8" x2="20" y2="8" stroke="#94a3b8" stroke-width="1"/>
      <line x1="5" y1="13" x2="15" y2="13" stroke="#94a3b8" stroke-width="1"/>
      <line x1="5" y1="18" x2="20" y2="18" stroke="#94a3b8" stroke-width="1"/>
      <line x1="5" y1="23" x2="18" y2="23" stroke="#94a3b8" stroke-width="1"/>
      
      <!-- File 2 -->
      <rect x="0" y="40" width="25" height="30" fill="#f1f5f9" stroke="#cbd5e1" stroke-width="1"/>
      <line x1="5" y1="48" x2="20" y2="48" stroke="#94a3b8" stroke-width="1"/>
      <line x1="5" y1="53" x2="15" y2="53" stroke="#94a3b8" stroke-width="1"/>
      <line x1="5" y1="58" x2="20" y2="58" stroke="#94a3b8" stroke-width="1"/>
      <line x1="5" y1="63" x2="18" y2="63" stroke="#94a3b8" stroke-width="1"/>
    </g>
    
    <!-- Upload Arrows -->
    <path d="M -90 -25 L -55 -25" stroke="#3b82f6" stroke-width="2" fill="none" marker-end="url(#arrowhead)"/>
    <path d="M -90 15 L -55 0" stroke="#3b82f6" stroke-width="2" fill="none" marker-end="url(#arrowhead)"/>
  </g>
  
  <!-- Define Arrowhead Marker -->
  <defs>
    <marker id="arrowhead" markerWidth="10" markerHeight="7" refX="9" refY="3.5" orient="auto">
      <polygon points="0 0, 10 3.5, 0 7" fill="#3b82f6"/>
    </marker>
  </defs>
  
  <!-- Person -->
  <g transform="translate(140, 160)">
    <!-- Head -->
    <circle cx="0" cy="0" r="25" fill="#fbbf24"/>
    
    <!-- Face -->
    <circle cx="-10" cy="-5" r="3" fill="#1e293b"/> <!-- Left eye -->
    <circle cx="10" cy="-5" r="3" fill="#1e293b"/> <!-- Right eye -->
    <path d="M -10 15 Q 0 20 10 15" stroke="#1e293b" stroke-width="2" fill="none"/> <!-- Smile -->
    
    <!-- Torso -->
    <rect x="-25" y="25" width="50" height="70" rx="5" ry="5" fill="#6366f1"/>
    
    <!-- Arms -->
    <rect x="-60" y="30" width="35" height="15" rx="5" ry="5" fill="#6366f1"/>
    <rect x="25" y="30" width="35" height="15" rx="5" ry="5" fill="#6366f1"/>
    
    <!-- Document -->
    <rect x="-55" y="0" width="30" height="40" fill="#f8fafc" stroke="#cbd5e1" stroke-width="1"/>
    <line x1="-50" y1="10" x2="-30" y2="10" stroke="#94a3b8" stroke-width="1"/>
    <line x1="-50" y1="15" x2="-30" y2="15" stroke="#94a3b8" stroke-width="1"/>
    <line x1="-50" y1="20" x2="-40" y2="20" stroke="#94a3b8" stroke-width="1"/>
    <line x1="-50" y1="25" x2="-35" y2="25" stroke="#94a3b8" stroke-width="1"/>
    <line x1="-50" y1="30" x2="-30" y2="30" stroke="#94a3b8" stroke-width="1"/>
    
    <!-- Hand -->
    <circle cx="-60" cy="37" r="7" fill="#fbbf24"/>
    <circle cx="60" cy="37" r="7" fill="#fbbf24"/>
    
    <!-- Legs -->
    <rect x="-25" y="95" width="18" height="50" rx="5" ry="5" fill="#4f46e5"/>
    <rect x="7" y="95" width="18" height="50" rx="5" ry="5" fill="#4f46e5"/>
  </g>
  
  <!-- Data Validation Check -->
  <g transform="translate(460, 140)">
    <rect x="0" y="0" width="90" height="120" rx="5" ry="5" fill="white" stroke="#d1d5db" stroke-width="1"/>
    
    <!-- Table Header -->
    <rect x="10" y="10" width="70" height="20" fill="#f1f5f9" stroke="#cbd5e1" stroke-width="1"/>
    <text x="45" y="23" font-family="Arial, sans-serif" font-size="8" font-weight="bold" text-anchor="middle" fill="#0f172a">Validation</text>
    
    <!-- Table Body -->
    <rect x="10" y="30" width="40" height="15" fill="#f8fafc" stroke="#cbd5e1" stroke-width="1"/>
    <text x="30" y="41" font-family="Arial, sans-serif" font-size="7" text-anchor="middle" fill="#334155">Format</text>
    
    <rect x="50" y="30" width="30" height="15" fill="#f8fafc" stroke="#cbd5e1" stroke-width="1"/>
    <text x="65" y="41" font-family="Arial, sans-serif" font-size="7" text-anchor="middle" fill="#334155">Pass</text>
    <circle cx="65" cy="37" r="5" fill="#22c55e" fill-opacity="0.2" stroke="#22c55e" stroke-width="1"/>
    <path d="M 62 37 L 65 40 L 68 34" stroke="#22c55e" stroke-width="1.5" fill="none"/>
    
    <!-- Row 2 -->
    <rect x="10" y="45" width="40" height="15" fill="#f8fafc" stroke="#cbd5e1" stroke-width="1"/>
    <text x="30" y="56" font-family="Arial, sans-serif" font-size="7" text-anchor="middle" fill="#334155">Values</text>
    
    <rect x="50" y="45" width="30" height="15" fill="#f8fafc" stroke="#cbd5e1" stroke-width="1"/>
    <text x="65" y="56" font-family="Arial, sans-serif" font-size="7" text-anchor="middle" fill="#334155">Pass</text>
    <circle cx="65" cy="52" r="5" fill="#22c55e" fill-opacity="0.2" stroke="#22c55e" stroke-width="1"/>
    <path d="M 62 52 L 65 55 L 68 49" stroke="#22c55e" stroke-width="1.5" fill="none"/>
    
    <!-- Row 3 -->
    <rect x="10" y="60" width="40" height="15" fill="#f8fafc" stroke="#cbd5e1" stroke-width="1"/>
    <text x="30" y="71" font-family="Arial, sans-serif" font-size="7" text-anchor="middle" fill="#334155">Structure</text>
    
    <rect x="50" y="60" width="30" height="15" fill="#f8fafc" stroke="#cbd5e1" stroke-width="1"/>
    <text x="65" y="71" font-family="Arial, sans-serif" font-size="7" text-anchor="middle" fill="#334155">Pass</text>
    <circle cx="65" cy="67" r="5" fill="#22c55e" fill-opacity="0.2" stroke="#22c55e" stroke-width="1"/>
    <path d="M 62 67 L 65 70 L 68 64" stroke="#22c55e" stroke-width="1.5" fill="none"/>
    
    <!-- Row 4 -->
    <rect x="10" y="75" width="40" height="15" fill="#f8fafc" stroke="#cbd5e1" stroke-width="1"/>
    <text x="30" y="86" font-family="Arial, sans-serif" font-size="7" text-anchor="middle" fill="#334155">Duplicates</text>
    
    <rect x="50" y="75" width="30" height="15" fill="#f8fafc" stroke="#cbd5e1" stroke-width="1"/>
    <text x="65" y="86" font-family="Arial, sans-serif" font-size="7" text-anchor="middle" fill="#334155">Warning</text>
    <circle cx="65" cy="82" r="5" fill="#eab308" fill-opacity="0.2" stroke="#eab308" stroke-width="1"/>
    <text x="65" y="85" font-family="Arial, sans-serif" font-size="8" font-weight="bold" text-anchor="middle" fill="#eab308">!</text>
    
    <!-- Row 5 -->
    <rect x="10" y="90" width="40" height="15" fill="#f8fafc" stroke="#cbd5e1" stroke-width="1"/>
    <text x="30" y="101" font-family="Arial, sans-serif" font-size="7" text-anchor="middle" fill="#334155">Ranges</text>
    
    <rect x="50" y="90" width="30" height="15" fill="#f8fafc" stroke="#cbd5e1" stroke-width="1"/>
    <text x="65" y="101" font-family="Arial, sans-serif" font-size="7" text-anchor="middle" fill="#334155">Pass</text>
    <circle cx="65" cy="97" r="5" fill="#22c55e" fill-opacity="0.2" stroke="#22c55e" stroke-width="1"/>
    <path d="M 62 97 L 65 100 L 68 94" stroke="#22c55e" stroke-width="1.5" fill="none"/>
  </g>
  
  <!-- Connection Lines -->
  <line x1="200" y1="150" x2="240" y2="150" stroke="#6366f1" stroke-width="2" stroke-dasharray="5,5"/>
  <line x1="350" y1="150" x2="410" y2="150" stroke="#6366f1" stroke-width="2" stroke-dasharray="5,5"/>
  
  <!-- Text -->
  <text x="300" y="330" font-family="Arial, sans-serif" font-size="24" font-weight="bold" text-anchor="middle" fill="#0f172a">
    County Staff Onboarding
  </text>
  <text x="300" y="360" font-family="Arial, sans-serif" font-size="16" text-anchor="middle" fill="#475569">
    Upload and validate property data files
  </text>
</svg>