<?xml version="1.0" encoding="UTF-8"?>
<svg width="300" height="200" xmlns="http://www.w3.org/2000/svg">
  <!-- Background -->
  <rect width="300" height="200" fill="#f0f7ff" rx="15" ry="15"/>
  
  <!-- Document/Form Icon -->
  <g transform="translate(90, 70)">
    <rect x="0" y="0" width="70" height="90" fill="white" stroke="#4f46e5" stroke-width="2" rx="5" ry="5"/>
    <line x1="15" y1="20" x2="55" y2="20" stroke="#4f46e5" stroke-width="2" stroke-linecap="round"/>
    <line x1="15" y1="35" x2="55" y2="35" stroke="#4f46e5" stroke-width="2" stroke-linecap="round"/>
    <line x1="15" y1="50" x2="40" y2="50" stroke="#4f46e5" stroke-width="2" stroke-linecap="round"/>
    <rect x="15" y="60" width="40" height="20" fill="#e0e7ff" stroke="#4f46e5" stroke-width="1" rx="3" ry="3"/>
    
    <!-- Folded Corner -->
    <path d="M70,0 L70,15 L55,0 Z" fill="#c7d2fe"/>
  </g>
  
  <!-- Staff Figure -->
  <g transform="translate(200, 100)">
    <circle cx="0" cy="-20" r="15" fill="#f0f7ff"/>
    <path d="M-15,0 Q0,20 15,0 L15,40 L-15,40 L-15,0 Z" fill="#4338ca"/>
    <rect x="-20" y="5" width="40" height="6" fill="#f0f7ff" rx="3" ry="3"/>
    <rect x="-20" y="15" width="40" height="6" fill="#f0f7ff" rx="3" ry="3"/>
  </g>
  
  <!-- Upload Arrow -->
  <g transform="translate(50, 100)">
    <circle cx="0" cy="0" r="20" fill="#e0e7ff"/>
    <path d="M0,-10 L0,10 M-10,0 L0,-10 L10,0" stroke="#4338ca" stroke-width="3" stroke-linecap="round" fill="none"/>
  </g>
  
  <!-- Pencil Icon -->
  <g transform="translate(230, 60) rotate(45)">
    <rect x="-5" y="-15" width="10" height="30" fill="#818cf8"/>
    <polygon points="0,-15 5,-15 5,-25 -5,-25 -5,-15" fill="#4f46e5"/>
    <rect x="-5" y="15" width="10" height="2" fill="#c7d2fe"/>
  </g>
  
  <!-- Text Box -->
  <g transform="translate(125, 160) scale(0.7)">
    <rect x="-50" y="0" width="100" height="30" fill="#e0e7ff" rx="5" ry="5"/>
    <text x="0" y="20" font-family="Arial" font-size="14" fill="#4338ca" text-anchor="middle">DATA ENTRY</text>
  </g>
  
  <!-- Text -->
  <text x="150" y="30" font-family="Arial" font-size="16" font-weight="bold" fill="#4338ca" text-anchor="middle">County Staff</text>
</svg>